<svg id="Checkbox" xmlns="http://www.w3.org/2000/svg" xmlns:xlink="http://www.w3.org/1999/xlink"
    width="22" height="22" viewBox="0 0 22 22">
    <defs>
        <clipPath id="clip-path">
            <rect id="Base" width="22" height="22" rx="7" fill="#fff7ff" />
        </clipPath>
    </defs>
    <g id="neumorph" clip-path="url(#clip-path)">
        <g id="Group_1" transform="translate(-7.782 -4.84)">
            <g id="Shadow" transform="translate(7.782 4.84)" fill="none" stroke="#dedede"
                stroke-width="3" opacity="0.996">
                <rect width="28.634" height="25.025" rx="7" stroke="none" />
                <rect x="1.5" y="1.5" width="25.634" height="22.025" rx="5.5" fill="none" />
            </g>
            <g id="Light" fill="none" stroke="#fff" stroke-width="3">
                <rect width="29.782" height="26.84" rx="7" stroke="none" />
                <rect x="1.5" y="1.5" width="26.782" height="23.84" rx="5.5" fill="none" />
            </g>
        </g>
        <g id="Rectangle_37" fill="none" stroke="#45484a" stroke-width="1">
            <rect width="22" height="22" rx="7" stroke="none" />
            <rect x="0.5" y="0.5" width="21" height="21" rx="6.5" fill="none" />
        </g>
    </g>
    <g id="Check" transform="translate(5.141 6.63)">
        <path id="Icon_awesome-check"
            d="M3.98,13.144.172,9.336a.586.586,0,0,1,0-.829L1,7.679a.586.586,0,0,1,.829,0l2.566,2.566,5.5-5.5a.586.586,0,0,1,.829,0l.829.829a.586.586,0,0,1,0,.829L4.809,13.144A.586.586,0,0,1,3.98,13.144Z"
            transform="translate(0 -4.577)" fill="#e25828" />
    </g>
</svg>
